<svg id="Layer_1" data-name="Layer 1" xmlns="http://www.w3.org/2000/svg" viewBox="0 0 498.69 236.7"><defs><style>.cls-1{fill:#00b2e3;}.cls-2{fill:#fff;}</style></defs><title>Artboard 2</title><path class="cls-1" d="M487.52,210.68a11,11,0,1,1,11.17-11A11,11,0,0,1,487.52,210.68Z"/><path class="cls-2" d="M197.67,139.62c-4.41,0-12.57.93-17.64,7.16L178,149.32v-9.13H159.28v70.25h19.25V178.3c0-12.8,6.18-19.56,17.87-19.56a29.1,29.1,0,0,1,5.09.45l.77.14V139.92l-.59,0A37.8,37.8,0,0,0,197.67,139.62Z"/><rect class="cls-2" width="19.25" height="103.21"/><path class="cls-2" d="M64.83,105.34c18.46,0,28.56-11.28,31.85-21.83l.2-.63-16.1-4.79-.22.56C78,85.28,72.6,88.79,65,88.79c-8.88,0-16.15-6-17.3-14.23l-.18-1.32h50l.07-.86c.07-1,.23-3.14.23-5.15,0-22.45-13.29-36.4-34.7-36.4-21.63,0-34.55,18.8-34.55,37C28.57,86.46,41,105.34,64.83,105.34ZM47.9,60l.26-1.37a15,15,0,0,1,15.25-12c8.57,0,14.29,4.52,15.31,12.1L78.9,60Z"/><path class="cls-2" d="M124,62.12c0-8.14,5-13.6,12.45-13.6,7.74,0,12.17,4.75,12.17,13v41.66h19.12V62.12c0-7.88,5.36-13.6,12.74-13.6,7.74,0,12.18,4.75,12.18,13v41.66h18.69V57.71c0-9.06-2.8-16.06-8.31-20.79a26.17,26.17,0,0,0-17.16-6c-9.93,0-18.25,3.66-23.43,10.31l-1,1.27-.9-1.34C156,34.36,145.4,30.78,137.24,30.78c-12.05,0-20.76,4.15-25.88,12.33-4.27,6.82-4.83,14.7-4.87,17.77-.06,4.91-.19,33.14-.23,41.68v.65H124Z"/><path class="cls-2" d="M257.09,105.34c21,0,36.83-16,36.83-37.26,0-21.58-15.49-37.25-36.83-37.25S220.26,46.5,220.26,68.08C220.26,89.32,236.09,105.34,257.09,105.34ZM239.51,68.08c0-13.61,8.83-19.7,17.58-19.7s17.58,6.09,17.58,19.7-8.83,19.71-17.58,19.71C248.62,87.79,239.51,81.62,239.51,68.08Z"/><path class="cls-2" d="M347.68,62.26v40.95h19.26V59c0-15.37-14.14-27.87-31.51-27.87-18,0-31.23,11.14-31.41,26.47l-1.23,45.62h19.26V62.83c0-6.89,4-14.31,12.88-14.31C343,48.52,347.68,53.53,347.68,62.26Z"/><path class="cls-2" d="M114.61,138.06c-21.63,0-34.55,18.8-34.55,37,0,18.66,12.45,37.55,36.26,37.55,18.46,0,28.56-11.28,31.85-21.83l.2-.63-16.1-4.79-.22.56c-2.57,6.63-8,10.13-15.59,10.13-8.88,0-16.15-6-17.29-14.23L99,180.47h50l.07-.85c.07-1,.23-3.15.23-5.15C149.31,152,136,138.06,114.61,138.06ZM99.39,167.18l.26-1.37a15,15,0,0,1,15.25-12.05c8.57,0,14.29,4.53,15.31,12.11l.18,1.31Z"/><path class="cls-2" d="M248.3,114.25c-16,0-25.61,9.29-25.61,24.85v3.21H211v17.16h11.65v51h19.4v-51h15.77V142.31H242.09v-2.93c0-3.4,1.11-5.77,3.3-7a11.27,11.27,0,0,1,5.69-1.11h.63a22.6,22.6,0,0,1,5.34.55l.81.2V115.72l-.42-.16A28.8,28.8,0,0,0,248.3,114.25Z"/><path class="cls-2" d="M297.45,138.06c-21.63,0-34.56,18.8-34.56,37,0,18.66,12.46,37.55,36.27,37.55,18.46,0,28.56-11.28,31.85-21.83l.2-.63-16.11-4.79-.21.56c-2.57,6.63-8,10.13-15.59,10.13-8.88,0-16.16-6-17.3-14.23l-.18-1.32h50l.07-.85c.07-1,.23-3.15.23-5.15C332.15,152,318.86,138.06,297.45,138.06Zm-15.22,29.12.26-1.37a15,15,0,0,1,15.25-12.05c8.56,0,14.29,4.53,15.31,12.11l.18,1.31Z"/><path class="cls-2" d="M394.16,183.67c-1.09,3.38-4.81,11.21-15.74,11.21-8.82,0-17.72-6-17.72-19.56s8.83-19.42,17.58-19.42c10.07,0,13.83,7,15.17,11.2l.2.63,17.24-5.79-.16-.59a31.1,31.1,0,0,0-10.18-15.72c-6-4.95-13.84-7.57-22.7-7.57-20.75,0-36.4,16-36.4,37.26s15.89,37.26,37,37.26c19.25,0,29.66-12.54,32.72-23.28l.18-.6-17-5.65Z"/><path class="cls-2" d="M462.55,157.32V140.19H448.49V119.31H431.08v10c0,2.56-.76,10.9-10.62,10.9h-3.73v17.13h12.65v32.35c0,13.63,8.35,21.77,22.34,21.77a28.92,28.92,0,0,0,10.41-1.6l.42-.16v-16l-.78.15a31.92,31.92,0,0,1-5.22.44c-5.73,0-8.06-2.3-8.06-7.92V157.32Z"/><path class="cls-2" d="M40,138.8c-8.06,0-15.6,3-19.68,7.79L18.23,149v-8.63H.45V236.7H18.8v-34l2,2c4.13,4.22,10.86,6.64,18.46,6.64,19.24,0,32.68-15,32.68-36.52S59.08,138.8,40,138.8ZM53.87,175c0,12-7.08,20-17.61,20s-17.74-8.23-17.74-20,7.13-19.88,17.74-19.88S53.87,163.15,53.87,175Z"/><path class="cls-2" d="M463.56,112.35a6.78,6.78,0,1,1-6.74,6.79A6.79,6.79,0,0,1,463.56,112.35Zm0,12.11a5.33,5.33,0,1,0-5.18-5.32A5.19,5.19,0,0,0,463.56,124.46Zm-.17-4.26h-.53v2.54h-1.74v-7.31H464a2.43,2.43,0,0,1,2.51,2.37,2.28,2.28,0,0,1-1.41,2.12l1.46,2.82h-1.92Zm.31-1.43a1,1,0,1,0,0-1.92h-.84v1.92Z"/></svg>